<?xml version="1.0" encoding="UTF-8"?>
<svg width="200" height="200" viewBox="0 0 200 200" xmlns="http://www.w3.org/2000/svg">
  <defs>
    <linearGradient id="logoGradient" x1="0%" y1="0%" x2="100%" y2="100%">
      <stop offset="0%" stop-color="#f8fafc"/>
      <stop offset="50%" stop-color="#e2e8f0"/>
      <stop offset="100%" stop-color="#cbd5e1"/>
    </linearGradient>
  </defs>
  
  <!-- Ford-style smooth cursive "W" -->
  <g transform="translate(40, 40) scale(1.2)">
    <path
      d="M 12 30
         Q 14 28, 18 32
         Q 24 45, 30 60
         Q 32 65, 35 62
         Q 40 50, 45 38
         Q 47 34, 50 36
         Q 53 38, 55 42
         Q 60 54, 65 62
         Q 68 65, 70 60
         Q 76 45, 82 32
         Q 86 28, 88 30
         Q 90 32, 88 36
         Q 80 55, 72 72
         Q 68 80, 62 78
         Q 58 76, 55 70
         Q 50 60, 50 58
         Q 50 60, 45 70
         Q 42 76, 38 78
         Q 32 80, 28 72
         Q 20 55, 12 36
         Q 10 32, 12 30
         Z"
      fill="url(#logoGradient)"
      stroke="#f1f5f9"
      stroke-width="0.5"
      stroke-linecap="round"
      stroke-linejoin="round"
    />
    <!-- Decorative underline swoosh -->
    <path
      d="M 18 78
         Q 35 82, 50 80
         Q 65 78, 82 74"
      fill="none"
      stroke="url(#logoGradient)"
      stroke-width="2.5"
      stroke-linecap="round"
    />
  </g>
</svg>